<svg xmlns="http://www.w3.org/2000/svg" width="10.248" height="10.254" viewBox="0 0 10.248 10.254">
<path id="Path_182" data-name="Path 182" d="M4.5.053a.868.868,0,0,1-.346-.07.98.98,0,0,1-.293-.193L.814-3.264a.889.889,0,0,1-.2-.293A.9.9,0,0,1,.551-3.9a.908.908,0,0,1,.067-.343.821.821,0,0,1,.2-.29l5.15-5.15a1.68,1.68,0,0,1,.571-.369A1.747,1.747,0,0,1,7.2-10.2H9.9a.863.863,0,0,1,.633.264A.87.87,0,0,1,10.8-9.3v2.7a1.735,1.735,0,0,1-.146.659,1.8,1.8,0,0,1-.363.577L5.139-.211a.98.98,0,0,1-.293.193A.868.868,0,0,1,4.5.053ZM7.2-9.6a1.18,1.18,0,0,0-.434.1,1.136,1.136,0,0,0-.381.234l-5.15,5.15a.3.3,0,0,0-.064.1.292.292,0,0,0-.023.114.285.285,0,0,0,.023.117.394.394,0,0,0,.064.1L4.289-.639a.235.235,0,0,0,.1.067A.328.328,0,0,0,4.5-.551a.328.328,0,0,0,.114-.021.235.235,0,0,0,.1-.067l5.15-5.15a1.094,1.094,0,0,0,.237-.378,1.163,1.163,0,0,0,.1-.431V-9.3a.288.288,0,0,0-.088-.211A.288.288,0,0,0,9.9-9.6ZM8.7-7.2a.87.87,0,0,1-.639-.264A.863.863,0,0,1,7.8-8.1a.87.87,0,0,1,.264-.639A.87.87,0,0,1,8.7-9a.863.863,0,0,1,.633.264A.87.87,0,0,1,9.6-8.1a.863.863,0,0,1-.264.633A.863.863,0,0,1,8.7-7.2Zm0-1.2a.288.288,0,0,0-.211.088A.3.3,0,0,0,8.4-8.1a.288.288,0,0,0,.088.211A.288.288,0,0,0,8.7-7.8a.288.288,0,0,0,.211-.088A.288.288,0,0,0,9-8.1a.3.3,0,0,0-.088-.217A.288.288,0,0,0,8.7-8.4Z" transform="translate(-0.551 10.201)" fill="#3184ff"/>
</svg>