<svg xmlns="http://www.w3.org/2000/svg" width="7.195" height="12" viewBox="0 0 7.195 12">
<path id="Path_181" data-name="Path 181" d="M6,.6A.3.3,0,0,1,5.868.568a.281.281,0,0,1-.1-.082Q5.754.469,5.6.272T5.221-.27q-.234-.346-.53-.82T4.084-2.145q-.182-.34-.346-.677t-.308-.671q-.144-.334-.27-.659T2.93-4.793Q2.8-5.2,2.7-5.587t-.167-.768q-.067-.378-.1-.738T2.4-7.8a3.517,3.517,0,0,1,.281-1.4,3.618,3.618,0,0,1,.771-1.146A3.659,3.659,0,0,1,4.6-11.118,3.486,3.486,0,0,1,6-11.4a3.486,3.486,0,0,1,1.4.284,3.659,3.659,0,0,1,1.146.773A3.618,3.618,0,0,1,9.316-9.2,3.517,3.517,0,0,1,9.6-7.8q0,.346-.032.706t-.1.738q-.067.378-.167.768t-.229.794q-.105.316-.231.642t-.27.659q-.144.334-.308.671t-.346.677q-.311.58-.606,1.055t-.53.82Q6.545.076,6.4.272T6.234.486a.281.281,0,0,1-.1.082A.3.3,0,0,1,6,.6ZM6-10.8a2.919,2.919,0,0,0-1.166.234,3.019,3.019,0,0,0-.952.642,3.051,3.051,0,0,0-.645.955A2.909,2.909,0,0,0,3-7.8a7.4,7.4,0,0,0,.149,1.471A11.782,11.782,0,0,0,3.533-4.9q.234.694.519,1.324t.565,1.14q.2.381.4.718t.381.621q.182.284.337.51T6-.205q.111-.158.267-.384T6.6-1.1q.182-.284.384-.624t.4-.715q.275-.516.563-1.143A13.186,13.186,0,0,0,8.47-4.9a12.2,12.2,0,0,0,.381-1.43A7.355,7.355,0,0,0,9-7.8a2.909,2.909,0,0,0-.237-1.169,3.051,3.051,0,0,0-.645-.955,3.019,3.019,0,0,0-.952-.642A2.919,2.919,0,0,0,6-10.8ZM6-6a1.745,1.745,0,0,1-.7-.141,1.824,1.824,0,0,1-.571-.387A1.814,1.814,0,0,1,4.342-7.1,1.751,1.751,0,0,1,4.2-7.8a1.766,1.766,0,0,1,.141-.7,1.78,1.78,0,0,1,.387-.571A1.849,1.849,0,0,1,5.3-9.457,1.745,1.745,0,0,1,6-9.6a1.745,1.745,0,0,1,.7.141,1.849,1.849,0,0,1,.571.384,1.78,1.78,0,0,1,.387.571,1.766,1.766,0,0,1,.141.7,1.751,1.751,0,0,1-.141.7,1.814,1.814,0,0,1-.387.574,1.824,1.824,0,0,1-.571.387A1.745,1.745,0,0,1,6-6ZM6-9a1.175,1.175,0,0,0-.466.094,1.207,1.207,0,0,0-.384.258,1.216,1.216,0,0,0-.258.381A1.168,1.168,0,0,0,4.8-7.8a1.175,1.175,0,0,0,.094.466,1.173,1.173,0,0,0,.258.381,1.275,1.275,0,0,0,.384.258A1.144,1.144,0,0,0,6-6.6a1.144,1.144,0,0,0,.466-.1,1.275,1.275,0,0,0,.384-.258,1.173,1.173,0,0,0,.258-.381A1.175,1.175,0,0,0,7.2-7.8a1.168,1.168,0,0,0-.094-.469,1.216,1.216,0,0,0-.258-.381,1.207,1.207,0,0,0-.384-.258A1.175,1.175,0,0,0,6-9Z" transform="translate(-2.402 11.402)" fill="#3184ff"/>
</svg>