<?xml version="1.0" encoding="utf-8"?>
<!-- Generator: Adobe Illustrator 23.0.6, SVG Export Plug-In . SVG Version: 6.00 Build 0)  -->
<svg version="1.1" id="Warstwa_1" xmlns="http://www.w3.org/2000/svg" xmlns:xlink="http://www.w3.org/1999/xlink" x="0px" y="0px"
	 viewBox="0 0 90.5 28.1" style="enable-background:new 0 0 90.5 28.1;" xml:space="preserve" width="63.82" height="19.82">
<style type="text/css">
	.st0{fill:#FFFFFF;}
	.st1{fill:#CB2F3A;}
</style>
<g>
	<path class="st0" d="M8.1,13.6c0-1.3-0.2-2.3-0.5-2.8c-0.3-0.6-0.9-0.8-1.8-0.8c-0.3,0-0.5,0-0.8,0c-0.3,0-0.5,0.1-0.8,0.1v11.3H0
		V7.2C0.4,7.1,0.8,7,1.2,6.9s1-0.2,1.5-0.3c0.5-0.1,1.1-0.1,1.6-0.2c0.6,0,1.1-0.1,1.6-0.1c1.1,0,1.9,0.1,2.6,0.4
		c0.7,0.3,1.2,0.6,1.6,1c0.6-0.4,1.3-0.8,2.1-1c0.8-0.2,1.5-0.4,2.1-0.4c1.2,0,2.1,0.2,2.9,0.5c0.8,0.3,1.4,0.8,1.8,1.4
		c0.4,0.6,0.8,1.3,0.9,2.1c0.2,0.8,0.3,1.7,0.3,2.7v8.3h-4.2v-7.8c0-1.3-0.2-2.3-0.5-2.8c-0.3-0.6-0.9-0.8-1.8-0.8
		c-0.2,0-0.5,0.1-0.9,0.2c-0.4,0.1-0.7,0.3-1,0.4c0.1,0.4,0.2,0.9,0.3,1.4c0,0.5,0.1,1,0.1,1.5v8H8.1V13.6z"/>
	<path class="st0" d="M37.8,14c0,1.2-0.2,2.2-0.5,3.2c-0.3,1-0.8,1.8-1.5,2.5c-0.6,0.7-1.4,1.2-2.3,1.6c-0.9,0.4-1.9,0.6-3,0.6
		c-1.1,0-2.1-0.2-2.9-0.6c-0.9-0.4-1.6-0.9-2.3-1.6c-0.6-0.7-1.1-1.5-1.5-2.5c-0.4-1-0.5-2-0.5-3.2s0.2-2.2,0.5-3.2
		c0.4-0.9,0.9-1.8,1.5-2.4c0.6-0.7,1.4-1.2,2.3-1.6c0.9-0.4,1.8-0.6,2.9-0.6c1.1,0,2,0.2,2.9,0.6c0.9,0.4,1.6,0.9,2.3,1.6
		c0.6,0.7,1.1,1.5,1.5,2.4C37.6,11.8,37.8,12.9,37.8,14z M33.6,14c0-1.3-0.3-2.3-0.8-3c-0.5-0.7-1.2-1.1-2.2-1.1
		c-0.9,0-1.7,0.4-2.2,1.1c-0.5,0.7-0.8,1.7-0.8,3s0.3,2.3,0.8,3.1c0.5,0.8,1.3,1.1,2.2,1.1c0.9,0,1.7-0.4,2.2-1.1
		C33.3,16.3,33.6,15.3,33.6,14z"/>
	<path class="st0" d="M41,7.2c0.7-0.2,1.6-0.4,2.7-0.6c1.1-0.2,2.3-0.3,3.5-0.3c1.2,0,2.3,0.2,3.1,0.5c0.8,0.3,1.5,0.8,2,1.4
		c0.5,0.6,0.8,1.3,1,2.1c0.2,0.8,0.3,1.7,0.3,2.7v8.3h-4.2v-7.8c0-1.3-0.2-2.3-0.5-2.8c-0.4-0.6-1-0.8-2-0.8c-0.3,0-0.6,0-0.9,0
		c-0.3,0-0.6,0.1-0.9,0.1v11.3H41V7.2z"/>
	<path class="st1" d="M62,2.5c0,0.8-0.2,1.4-0.7,1.8c-0.5,0.4-1.1,0.7-1.7,0.7c-0.7,0-1.3-0.2-1.7-0.7c-0.5-0.4-0.7-1-0.7-1.8
		s0.2-1.4,0.7-1.8C58.3,0.2,58.9,0,59.5,0c0.7,0,1.3,0.2,1.7,0.7C61.8,1.1,62,1.7,62,2.5z"/>
	<path class="st1" d="M62,25.6c0,0.8-0.2,1.4-0.7,1.8c-0.5,0.4-1.1,0.7-1.7,0.7c-0.7,0-1.3-0.2-1.7-0.7c-0.5-0.4-0.7-1-0.7-1.8
		s0.2-1.4,0.7-1.8c0.5-0.4,1.1-0.7,1.7-0.7c0.7,0,1.3,0.2,1.7,0.7C61.8,24.3,62,24.9,62,25.6z"/>
	<path class="st1" d="M61.6,21.4L61.6,21.4c-2.3,0-4.2-1.9-4.2-4.2V6.7h0c2.3,0,4.2,1.9,4.2,4.2V21.4z"/>
	<path class="st0" d="M65.4,3l4.2-0.7v4.3h5v3.5h-5v5.2c0,0.9,0.2,1.6,0.5,2.1c0.3,0.5,0.9,0.8,1.9,0.8c0.4,0,0.9,0,1.4-0.1
		c0.5-0.1,0.9-0.2,1.3-0.3l0.6,3.2c-0.5,0.2-1.1,0.4-1.7,0.5c-0.6,0.1-1.4,0.2-2.3,0.2c-1.1,0-2.1-0.2-2.8-0.5
		c-0.7-0.3-1.3-0.7-1.8-1.3c-0.4-0.5-0.8-1.2-0.9-2c-0.2-0.8-0.3-1.6-0.3-2.6V3z"/>
	<path class="st0" d="M76.7,14.2c0-1.3,0.2-2.4,0.6-3.4s0.9-1.8,1.6-2.4c0.7-0.7,1.4-1.1,2.2-1.5c0.8-0.3,1.7-0.5,2.6-0.5
		c2.1,0,3.7,0.6,4.9,1.9c1.2,1.3,1.8,3.2,1.8,5.6c0,0.2,0,0.5,0,0.8c0,0.3,0,0.5-0.1,0.8H81c0.1,0.9,0.5,1.5,1.2,2
		c0.7,0.5,1.7,0.8,2.8,0.8c0.8,0,1.5-0.1,2.2-0.2c0.7-0.1,1.3-0.3,1.8-0.5l0.6,3.4c-0.2,0.1-0.5,0.2-0.9,0.3
		c-0.4,0.1-0.8,0.2-1.2,0.3c-0.5,0.1-0.9,0.2-1.5,0.2c-0.5,0.1-1,0.1-1.6,0.1c-1.3,0-2.5-0.2-3.4-0.6c-1-0.4-1.8-0.9-2.4-1.6
		c-0.6-0.7-1.1-1.5-1.4-2.4C76.8,16.2,76.7,15.2,76.7,14.2z M86.5,12.6c0-0.4-0.1-0.7-0.2-1c-0.1-0.3-0.3-0.6-0.5-0.9
		S85.3,10.2,85,10c-0.3-0.2-0.7-0.2-1.2-0.2c-0.5,0-0.9,0.1-1.2,0.2c-0.3,0.2-0.6,0.4-0.8,0.6c-0.2,0.3-0.4,0.6-0.5,0.9
		c-0.1,0.3-0.2,0.7-0.3,1H86.5z"/>
</g>
</svg>
