<svg xmlns="http://www.w3.org/2000/svg" width="10.195" height="10.201" viewBox="0 0 10.195 10.201">
<path id="Path_180" data-name="Path 180" d="M6.41-3.6a2.251,2.251,0,0,1-.835-.161,2.135,2.135,0,0,1-.729-.483.288.288,0,0,1-.088-.211.288.288,0,0,1,.088-.211.291.291,0,0,1,.214-.088.291.291,0,0,1,.214.088,1.553,1.553,0,0,0,.53.352A1.633,1.633,0,0,0,6.41-4.2a1.633,1.633,0,0,0,.606-.117,1.553,1.553,0,0,0,.53-.352l2.18-2.186a1.516,1.516,0,0,0,.357-.53,1.633,1.633,0,0,0,.117-.606,1.633,1.633,0,0,0-.117-.606,1.516,1.516,0,0,0-.357-.53A1.553,1.553,0,0,0,9.2-9.48,1.633,1.633,0,0,0,8.59-9.6a1.633,1.633,0,0,0-.606.117,1.553,1.553,0,0,0-.53.352l-1.84,1.84A.291.291,0,0,1,5.4-7.2a.291.291,0,0,1-.214-.088A.288.288,0,0,1,5.1-7.5a.288.288,0,0,1,.088-.211l1.846-1.84a2.172,2.172,0,0,1,.729-.486,2.208,2.208,0,0,1,.832-.164,2.208,2.208,0,0,1,.832.164,2.172,2.172,0,0,1,.729.486,2.135,2.135,0,0,1,.483.729,2.243,2.243,0,0,1,.161.832,2.243,2.243,0,0,1-.161.832,2.135,2.135,0,0,1-.483.729L7.969-4.248a2.135,2.135,0,0,1-.729.483A2.236,2.236,0,0,1,6.41-3.6ZM2.807,0a2.236,2.236,0,0,1-.829-.161,2.135,2.135,0,0,1-.729-.483A2.2,2.2,0,0,1,.765-1.38,2.236,2.236,0,0,1,.6-2.209a2.258,2.258,0,0,1,.161-.832,2.128,2.128,0,0,1,.483-.732l2.18-2.18a2.135,2.135,0,0,1,.729-.483A2.243,2.243,0,0,1,4.989-6.6a2.243,2.243,0,0,1,.832.161,2.135,2.135,0,0,1,.729.483.288.288,0,0,1,.088.211.288.288,0,0,1-.088.211.288.288,0,0,1-.211.088.288.288,0,0,1-.211-.088,1.553,1.553,0,0,0-.53-.352A1.633,1.633,0,0,0,4.992-6a1.633,1.633,0,0,0-.606.117,1.553,1.553,0,0,0-.53.352L1.67-3.346a1.553,1.553,0,0,0-.352.53,1.633,1.633,0,0,0-.117.606,1.633,1.633,0,0,0,.117.606,1.553,1.553,0,0,0,.352.53A1.546,1.546,0,0,0,2.2-.721,1.649,1.649,0,0,0,2.81-.6a1.626,1.626,0,0,0,.6-.117,1.615,1.615,0,0,0,.536-.352l1.84-1.84A.288.288,0,0,1,6-3a.288.288,0,0,1,.211.088A.288.288,0,0,1,6.3-2.7a.288.288,0,0,1-.088.211L4.371-.645a2.135,2.135,0,0,1-.729.483A2.251,2.251,0,0,1,2.807,0Z" transform="translate(-0.604 10.201)" fill="#3184ff"/>
</svg>